<mxfile host="65bd71144e">
    <diagram id="6y5pCuQaanPcLkWCLVvD" name="Page-1">
        <mxGraphModel dx="936" dy="714" grid="1" gridSize="10" guides="1" tooltips="1" connect="1" arrows="1" fold="1" page="1" pageScale="1" pageWidth="850" pageHeight="1100" math="0" shadow="0">
            <root>
                <mxCell id="0"/>
                <mxCell id="1" parent="0"/>
                <mxCell id="2" value="" style="rounded=1;whiteSpace=wrap;html=1;" vertex="1" parent="1">
                    <mxGeometry x="60" y="100" width="280" height="290" as="geometry"/>
                </mxCell>
                <mxCell id="3" value="Program" style="text;html=1;strokeColor=none;fillColor=none;align=center;verticalAlign=middle;whiteSpace=wrap;rounded=0;" vertex="1" parent="1">
                    <mxGeometry x="190" y="110" width="60" height="30" as="geometry"/>
                </mxCell>
                <mxCell id="4" value="Project A" style="ellipse;whiteSpace=wrap;html=1;aspect=fixed;" vertex="1" parent="1">
                    <mxGeometry x="80" y="120" width="80" height="80" as="geometry"/>
                </mxCell>
                <mxCell id="5" value="Project B" style="triangle;whiteSpace=wrap;html=1;align=left;" vertex="1" parent="1">
                    <mxGeometry x="90" y="230" width="70" height="100" as="geometry"/>
                </mxCell>
                <mxCell id="6" value="Project C" style="shape=cube;whiteSpace=wrap;html=1;boundedLbl=1;backgroundOutline=1;darkOpacity=0.05;darkOpacity2=0.1;" vertex="1" parent="1">
                    <mxGeometry x="180" y="180" width="120" height="80" as="geometry"/>
                </mxCell>
                <mxCell id="7" value="" style="shape=step;perimeter=stepPerimeter;whiteSpace=wrap;html=1;fixedSize=1;" vertex="1" parent="1">
                    <mxGeometry x="370" y="205" width="120" height="80" as="geometry"/>
                </mxCell>
                <mxCell id="8" value="Strategic Objectives&lt;br&gt;Program Goal" style="rounded=1;whiteSpace=wrap;html=1;fillColor=#6a00ff;fontColor=#ffffff;strokeColor=#3700CC;" vertex="1" parent="1">
                    <mxGeometry x="540" y="215" width="120" height="60" as="geometry"/>
                </mxCell>
                <mxCell id="9" value="Each project has its own deliverables" style="text;html=1;strokeColor=none;fillColor=none;align=center;verticalAlign=middle;whiteSpace=wrap;rounded=0;" vertex="1" parent="1">
                    <mxGeometry x="110" y="410" width="150" height="30" as="geometry"/>
                </mxCell>
                <mxCell id="10" value="Other activities" style="shape=hexagon;perimeter=hexagonPerimeter2;whiteSpace=wrap;html=1;fixedSize=1;" vertex="1" parent="1">
                    <mxGeometry x="170" y="285" width="120" height="80" as="geometry"/>
                </mxCell>
            </root>
        </mxGraphModel>
    </diagram>
    <diagram id="NV_xoaPcx7ZlK4NCQp9l" name="Page-2">
        <mxGraphModel dx="936" dy="714" grid="1" gridSize="10" guides="1" tooltips="1" connect="1" arrows="1" fold="1" page="1" pageScale="1" pageWidth="850" pageHeight="1100" math="0" shadow="0">
            <root>
                <mxCell id="0"/>
                <mxCell id="1" parent="0"/>
                <mxCell id="gX91TLkxyYamc2s5DtoR-24" value="" style="rounded=0;whiteSpace=wrap;html=1;dashed=1;strokeColor=#56517e;fillColor=#d0cee2;" vertex="1" parent="1">
                    <mxGeometry x="160" y="170" width="620" height="370" as="geometry"/>
                </mxCell>
                <mxCell id="gX91TLkxyYamc2s5DtoR-13" value="" style="rounded=1;whiteSpace=wrap;html=1;dashed=1;strokeColor=#23445d;fillColor=#bac8d3;" vertex="1" parent="1">
                    <mxGeometry x="172.5" y="200" width="520" height="210" as="geometry"/>
                </mxCell>
                <mxCell id="gX91TLkxyYamc2s5DtoR-11" value="" style="rounded=1;whiteSpace=wrap;html=1;fillColor=#fad7ac;dashed=1;strokeColor=#000000;" vertex="1" parent="1">
                    <mxGeometry x="190" y="290" width="485" height="100" as="geometry"/>
                </mxCell>
                <mxCell id="gX91TLkxyYamc2s5DtoR-10" value="" style="rounded=1;whiteSpace=wrap;html=1;fillColor=#f0a30a;fontColor=#000000;strokeColor=#BD7000;" vertex="1" parent="1">
                    <mxGeometry x="225" y="300" width="120" height="60" as="geometry"/>
                </mxCell>
                <mxCell id="gX91TLkxyYamc2s5DtoR-1" value="Appropriate&amp;nbsp; Governance Body [AGB]" style="rounded=0;whiteSpace=wrap;html=1;fillColor=#0050ef;fontColor=#ffffff;strokeColor=#001DBC;" vertex="1" parent="1">
                    <mxGeometry x="212.5" y="70" width="480" height="60" as="geometry"/>
                </mxCell>
                <mxCell id="gX91TLkxyYamc2s5DtoR-2" value="" style="endArrow=none;dashed=1;html=1;dashPattern=8 8;strokeWidth=2;" edge="1" parent="1">
                    <mxGeometry width="50" height="50" relative="1" as="geometry">
                        <mxPoint x="80" y="150" as="sourcePoint"/>
                        <mxPoint x="690" y="150" as="targetPoint"/>
                    </mxGeometry>
                </mxCell>
                <mxCell id="gX91TLkxyYamc2s5DtoR-3" value="Governing&amp;nbsp; Layer" style="text;html=1;strokeColor=none;fillColor=none;align=center;verticalAlign=middle;whiteSpace=wrap;rounded=0;" vertex="1" parent="1">
                    <mxGeometry x="50" y="90" width="100" height="30" as="geometry"/>
                </mxCell>
                <mxCell id="gX91TLkxyYamc2s5DtoR-4" value="Programme&amp;nbsp; Layer" style="text;html=1;strokeColor=none;fillColor=none;align=center;verticalAlign=middle;whiteSpace=wrap;rounded=0;" vertex="1" parent="1">
                    <mxGeometry x="40" y="260" width="120" height="30" as="geometry"/>
                </mxCell>
                <mxCell id="gX91TLkxyYamc2s5DtoR-5" value="Programme Owner&lt;br&gt;[PgO]" style="rounded=1;whiteSpace=wrap;html=1;fillColor=#f0a30a;fontColor=#000000;strokeColor=#BD7000;" vertex="1" parent="1">
                    <mxGeometry x="370" y="230" width="120" height="50" as="geometry"/>
                </mxCell>
                <mxCell id="gX91TLkxyYamc2s5DtoR-6" value="Programme Manager&lt;br&gt;[PgM]" style="rounded=1;whiteSpace=wrap;html=1;fillColor=#f0a30a;fontColor=#000000;strokeColor=#BD7000;" vertex="1" parent="1">
                    <mxGeometry x="525" y="310" width="120" height="60" as="geometry"/>
                </mxCell>
                <mxCell id="gX91TLkxyYamc2s5DtoR-8" value="" style="rounded=1;whiteSpace=wrap;html=1;fillColor=#f0a30a;fontColor=#000000;strokeColor=#BD7000;" vertex="1" parent="1">
                    <mxGeometry x="215" y="310" width="120" height="60" as="geometry"/>
                </mxCell>
                <mxCell id="gX91TLkxyYamc2s5DtoR-7" value="Programme Business Manager&lt;br&gt;[PgBM]" style="rounded=1;whiteSpace=wrap;html=1;fillColor=#f0a30a;fontColor=#000000;strokeColor=#BD7000;" vertex="1" parent="1">
                    <mxGeometry x="205" y="320" width="120" height="60" as="geometry"/>
                </mxCell>
                <mxCell id="gX91TLkxyYamc2s5DtoR-12" value="Collaboration &amp;amp; Comunication" style="text;html=1;strokeColor=none;fillColor=none;align=center;verticalAlign=middle;whiteSpace=wrap;rounded=0;dashed=1;fontColor=#0;fontStyle=1" vertex="1" parent="1">
                    <mxGeometry x="355" y="320" width="150" height="40" as="geometry"/>
                </mxCell>
                <mxCell id="gX91TLkxyYamc2s5DtoR-16" value="Programme Steering&amp;nbsp; committee [PgSC]" style="rounded=1;whiteSpace=wrap;html=1;dashed=1;strokeColor=#ae4132;fillColor=#fad9d5;fontColor=#000000;" vertex="1" parent="1">
                    <mxGeometry x="225" y="180" width="410" height="40" as="geometry"/>
                </mxCell>
                <mxCell id="gX91TLkxyYamc2s5DtoR-17" value="" style="endArrow=none;dashed=1;html=1;dashPattern=8 8;strokeWidth=2;" edge="1" parent="1">
                    <mxGeometry width="50" height="50" relative="1" as="geometry">
                        <mxPoint x="80" y="430" as="sourcePoint"/>
                        <mxPoint x="700" y="430" as="targetPoint"/>
                    </mxGeometry>
                </mxCell>
                <mxCell id="gX91TLkxyYamc2s5DtoR-18" value="Projects&amp;nbsp; Layer" style="text;html=1;strokeColor=none;fillColor=none;align=center;verticalAlign=middle;whiteSpace=wrap;rounded=0;" vertex="1" parent="1">
                    <mxGeometry x="40" y="480" width="120" height="30" as="geometry"/>
                </mxCell>
                <mxCell id="gX91TLkxyYamc2s5DtoR-19" value="Project Manager&lt;br&gt;[PM]" style="rounded=1;whiteSpace=wrap;html=1;dashed=1;strokeColor=#005700;fontColor=#ffffff;fillColor=#008a00;" vertex="1" parent="1">
                    <mxGeometry x="223" y="465" width="120" height="60" as="geometry"/>
                </mxCell>
                <mxCell id="gX91TLkxyYamc2s5DtoR-20" value="Project Manager&lt;br&gt;[PM]" style="rounded=1;whiteSpace=wrap;html=1;dashed=1;strokeColor=#005700;fontColor=#ffffff;fillColor=#008a00;" vertex="1" parent="1">
                    <mxGeometry x="363" y="465" width="120" height="60" as="geometry"/>
                </mxCell>
                <mxCell id="gX91TLkxyYamc2s5DtoR-21" value="Project Manager&lt;br&gt;[PM]" style="rounded=1;whiteSpace=wrap;html=1;dashed=1;strokeColor=#005700;fontColor=#ffffff;fillColor=#008a00;" vertex="1" parent="1">
                    <mxGeometry x="508" y="465" width="120" height="60" as="geometry"/>
                </mxCell>
                <mxCell id="gX91TLkxyYamc2s5DtoR-22" value="Programme Support Office ]PgSO]" style="rounded=1;whiteSpace=wrap;html=1;dashed=1;strokeColor=#006EAF;fontColor=#ffffff;fillColor=#1ba1e2;rotation=-90;" vertex="1" parent="1">
                    <mxGeometry x="570" y="335" width="340" height="40" as="geometry"/>
                </mxCell>
            </root>
        </mxGraphModel>
    </diagram>
</mxfile>